HIERARCHY
ROOT Hips
{
	OFFSET 0.000000 0.000000 0.000000 
	CHANNELS 6 Xposition Yposition Zposition Zrotation Yrotation Xrotation
	JOINT LeftUpLeg
	{
		OFFSET 1.363060 -1.794630 0.839290 
		CHANNELS 3 Zrotation Yrotation Xrotation
		JOINT LeftLeg
		{
			OFFSET 2.448110 -6.726130 0.000000 
			CHANNELS 3 Zrotation Yrotation Xrotation
			JOINT LeftFoot
			{
				OFFSET 2.562200 -7.039590 0.000000 
				CHANNELS 3 Zrotation Yrotation Xrotation
				JOINT LeftToeBase
				{
					OFFSET 0.157640 -0.433110 2.322550 
					CHANNELS 3 Zrotation Yrotation Xrotation
					End Site
					{
						OFFSET 0.000000 0.000000 0.000000 
					}
				}
			}
		}
	}
	JOINT RightUpLeg
	{
		OFFSET -1.305520 -1.794630 0.839290 
		CHANNELS 3 Zrotation Yrotation Xrotation
		JOINT RightLeg
		{
			OFFSET -2.542530 -6.985550 0.000000 
			CHANNELS 3 Zrotation Yrotation Xrotation
			JOINT RightFoot
			{
				OFFSET -2.568260 -7.056230 0.000000 
				CHANNELS 3 Zrotation Yrotation Xrotation
				JOINT RightToeBase
				{
					OFFSET -0.164730 -0.452590 2.363150 
					CHANNELS 3 Zrotation Yrotation Xrotation
					End Site
					{
						OFFSET 0.000000 0.000000 0.000000 
					}
				}
			}
		}
	}
	JOINT Spine
	{
		OFFSET 0.028270 2.035590 -0.193380 
		CHANNELS 3 Zrotation Yrotation Xrotation
		JOINT Spine1
		{
			OFFSET 0.056720 2.048850 -0.042750 
			CHANNELS 3 Zrotation Yrotation Xrotation
			JOINT Neck1
			{
				OFFSET -0.054170 1.746240 0.172020 
				CHANNELS 3 Zrotation Yrotation Xrotation
				JOINT Head
				{
					OFFSET 0.104070 1.761360 -0.123970 
					CHANNELS 3 Zrotation Yrotation Xrotation
					End Site
					{
						OFFSET 0.000000 0.000000 0.000000 
					}
				}
			}
			JOINT LeftArm
			{
				OFFSET 3.362410 1.200890 -0.311210 
				CHANNELS 3 Zrotation Yrotation Xrotation
				JOINT LeftForeArm
				{
					OFFSET 4.983000 -0.000000 -0.000000 
					CHANNELS 3 Zrotation Yrotation Xrotation
					JOINT LeftHand
					{
						OFFSET 3.483560 -0.000000 -0.000000 
						CHANNELS 3 Zrotation Yrotation Xrotation
						JOINT LeftHandIndex1
						{
							OFFSET 0.715260 -0.000000 -0.000000 
							CHANNELS 3 Zrotation Yrotation Xrotation
							End Site
							{
								OFFSET 0.000000 0.000000 0.000000 
							}
						}
					}
				}
			}
			JOINT RightArm
			{
				OFFSET -3.136600 1.374050 -0.404650 
				CHANNELS 3 Zrotation Yrotation Xrotation
				JOINT RightForeArm
				{
					OFFSET -5.241900 -0.000000 -0.000000 
					CHANNELS 3 Zrotation Yrotation Xrotation
					JOINT RightHand
					{
						OFFSET -3.444170 -0.000000 -0.000000 
						CHANNELS 3 Zrotation Yrotation Xrotation
						JOINT RightHandIndex1
						{
							OFFSET -0.622530 -0.000000 -0.000000 
							CHANNELS 3 Zrotation Yrotation Xrotation
							End Site
							{
								OFFSET 0.000000 0.000000 0.000000 
							}
						}
					}
				}
			}
		}
	}
}
MOTION
Frames: 7
Frame Time: 0.041667
24.813283 17.975481 20.131336 -162.141267 -56.561408 172.228422 -13.925942 0.945017 -21.597165 3.750627 10.575655 31.402923 2.076403 12.987388 -30.140005 0.688100 5.303200 14.775300 30.322801 8.473355 -22.346436 -3.795561 -10.720360 31.975475 -1.301669 -7.642579 -22.208457 -0.934900 -6.159000 17.246600 4.004303 -2.270449 4.844598 4.383860 -1.018584 -4.801615 23.927567 -27.205745 9.614999 6.803300 -13.436700 7.057800 -84.218305 -4.743427 26.512422 11.699762 -18.633830 -1.752816 0.129388 -0.046443 3.753989 -7.125000 0.000000 0.000000 87.310842 5.074225 30.932144 -25.398850 36.718112 -8.086165 -0.132229 -0.518001 -17.210365 7.125000 0.000000 0.000000 
24.838228 17.966607 20.146520 -161.926224 -55.924116 171.855913 -13.599500 1.217529 -21.483840 3.768562 10.610036 31.515817 2.119545 13.048566 -30.466204 0.702500 5.357100 14.930100 30.807756 7.091621 -22.203793 -3.882306 -10.863256 32.478161 -1.261690 -8.431043 -22.113353 -0.684500 -5.289500 14.736000 3.999305 -2.214095 4.948398 4.113503 -0.999945 -4.834311 23.723712 -27.284963 9.660758 6.702600 -13.469900 7.028900 -83.897167 -5.079067 25.896625 11.539829 -18.389940 -1.703753 0.134888 -0.048903 3.910351 -7.125000 0.000000 0.000000 87.407948 4.966733 30.368842 -24.866071 36.159707 -7.775911 -0.132466 -0.527544 -17.288610 7.125000 0.000000 0.000000 
24.859328 17.975185 20.155493 -162.772276 -55.546454 172.656314 -14.036402 1.337178 -21.500110 3.744100 10.559804 31.352533 2.098894 13.369753 -30.527284 0.692900 5.321300 14.827400 30.509738 5.873487 -22.370523 -3.981391 -11.017763 33.019062 -1.252645 -8.957539 -22.221907 -0.522600 -4.632800 12.864100 3.795006 -2.220092 4.879223 4.102777 -0.999746 -4.771598 23.525823 -27.386455 9.662255 6.607200 -13.525500 6.960000 -83.635349 -5.400631 25.081438 11.319258 -18.038569 -1.634401 0.133239 -0.057691 4.448593 -7.125000 0.000000 0.000000 87.550449 4.786680 29.351074 -24.292414 35.545309 -7.445742 -0.126187 -0.528293 -17.192241 7.125000 0.000000 0.000000 
24.876977 17.989975 20.159437 -164.004324 -55.038172 174.077797 -14.727096 1.541446 -21.923379 3.744733 10.550137 31.325702 2.086115 13.653451 -30.645230 0.701200 5.352400 14.916500 29.897967 5.010488 -22.703966 -4.077696 -11.162792 33.519371 -1.316060 -8.662884 -22.689081 -0.627200 -5.067500 14.101300 3.558497 -2.206537 4.718141 4.167465 -0.989614 -4.532620 23.553205 -27.512745 9.813711 6.591900 -13.586100 7.011600 -83.513960 -5.799731 23.850912 11.006342 -17.541003 -1.538953 0.128638 -0.066854 5.451428 -7.125000 0.000000 0.000000 87.575581 4.641315 28.584212 -23.723862 34.920493 -7.124437 -0.130698 -0.528057 -16.930432 7.125000 0.000000 0.000000 
24.895908 17.983665 20.162000 -164.389868 -54.505191 174.250459 -14.850112 2.066813 -21.828206 3.731650 10.529189 31.260178 2.088375 13.703567 -30.685773 0.729300 5.456200 15.214400 29.811515 3.914824 -22.433293 -4.164072 -11.290130 33.974187 -1.377942 -8.331254 -23.139890 -0.769500 -5.601300 15.631800 3.399601 -2.174270 4.768903 3.977557 -0.980441 -4.447746 23.796026 -27.722896 9.831188 6.643900 -13.704600 7.048500 -83.251314 -6.201184 22.693479 10.768933 -17.169751 -1.470048 0.137292 -0.070654 6.253731 -7.125000 0.000000 0.000000 87.647015 4.455815 28.133819 -23.090114 34.213734 -6.776434 -0.154268 -0.528932 -16.350822 7.125000 0.000000 0.000000 
24.925882 17.969269 20.167423 -164.493579 -54.126729 174.030154 -14.751253 2.438289 -21.663477 3.729331 10.532274 31.277058 2.029945 14.019808 -30.458045 0.665700 5.217800 14.530900 29.854348 2.893287 -22.041553 -4.238781 -11.402421 34.373935 -1.417204 -8.437494 -23.545062 -0.889400 -6.011500 16.817800 3.357930 -2.250587 4.809969 3.900848 -1.019515 -4.558640 23.838227 -27.806579 9.759076 6.648100 -13.764500 6.996900 -83.036575 -6.533478 21.047815 10.575672 -16.868398 -1.413487 0.144649 -0.081898 7.267284 -7.125000 0.000000 0.000000 87.756394 4.250996 27.546393 -22.412120 33.445387 -6.410548 -0.167520 -0.531826 -15.786434 7.125000 0.000000 0.000000 
24.956053 17.966410 20.172945 -165.033470 -53.478352 174.496749 -14.909976 2.545383 -21.744133 3.748746 10.568063 31.404632 1.905788 14.933341 -30.202175 0.527300 4.653500 12.923000 29.626600 2.324862 -21.849919 -4.304099 -11.502557 34.724330 -1.415345 -8.816129 -23.675320 -0.944500 -6.189700 17.335700 3.268365 -2.192026 4.765862 3.912516 -0.988096 -4.540234 23.680807 -27.953714 9.961021 6.544900 -13.819100 7.049500 -82.876697 -6.840539 19.565304 10.442884 -16.659719 -1.373910 0.143499 -0.091662 8.007750 -7.125000 0.000000 0.000000 87.903193 4.240113 26.633649 -21.738340 32.666068 -6.052103 -0.164929 -0.538381 -15.498590 7.125000 0.000000 0.000000 
